<mxfile host="app.diagrams.net" agent="Mozilla/5.0 (Windows NT 10.0; Win64; x64) AppleWebKit/537.36 (KHTML, like Gecko) Chrome/129.0.0.0 Safari/537.36" version="24.7.16">
  <diagram name="Page-1" id="XMqP6ViWIaQLeARuWd6u">
    <mxGraphModel dx="2200" dy="1255" grid="1" gridSize="10" guides="1" tooltips="1" connect="1" arrows="1" fold="1" page="1" pageScale="1" pageWidth="850" pageHeight="1100" math="0" shadow="0">
      <root>
        <mxCell id="0" />
        <mxCell id="1" parent="0" />
        <mxCell id="zU2PSvf3BjOLI_M1upsQ-4" value="" style="edgeStyle=orthogonalEdgeStyle;rounded=0;orthogonalLoop=1;jettySize=auto;html=1;entryX=0.5;entryY=0;entryDx=0;entryDy=0;" edge="1" parent="1" source="zU2PSvf3BjOLI_M1upsQ-1" target="zU2PSvf3BjOLI_M1upsQ-2">
          <mxGeometry relative="1" as="geometry" />
        </mxCell>
        <mxCell id="zU2PSvf3BjOLI_M1upsQ-1" value="START" style="strokeWidth=2;html=1;shape=mxgraph.flowchart.terminator;whiteSpace=wrap;" vertex="1" parent="1">
          <mxGeometry x="230" y="40" width="100" height="60" as="geometry" />
        </mxCell>
        <mxCell id="zU2PSvf3BjOLI_M1upsQ-6" value="" style="edgeStyle=orthogonalEdgeStyle;rounded=0;orthogonalLoop=1;jettySize=auto;html=1;entryX=0.5;entryY=0;entryDx=0;entryDy=0;" edge="1" parent="1" source="zU2PSvf3BjOLI_M1upsQ-2" target="zU2PSvf3BjOLI_M1upsQ-15">
          <mxGeometry relative="1" as="geometry">
            <mxPoint x="280.0434782608695" y="220" as="targetPoint" />
          </mxGeometry>
        </mxCell>
        <mxCell id="zU2PSvf3BjOLI_M1upsQ-2" value="" style="verticalLabelPosition=bottom;verticalAlign=top;html=1;shape=hexagon;perimeter=hexagonPerimeter2;arcSize=6;size=0.13043478260869565;" vertex="1" parent="1">
          <mxGeometry x="137.5" y="140" width="285" height="60" as="geometry" />
        </mxCell>
        <mxCell id="zU2PSvf3BjOLI_M1upsQ-3" value="ulang, nama matakuliah, nilai_huruf&amp;nbsp;: str&lt;div&gt;&amp;nbsp;sks, bobot,&amp;nbsp;&lt;span style=&quot;background-color: initial;&quot;&gt;jumlah_sks&lt;/span&gt;&lt;span style=&quot;background-color: initial;&quot;&gt;: int&lt;/span&gt;&lt;/div&gt;&lt;div&gt;jumlah_bobot : float&amp;nbsp;&lt;/div&gt;" style="text;html=1;align=center;verticalAlign=middle;resizable=0;points=[];autosize=1;strokeColor=none;fillColor=none;" vertex="1" parent="1">
          <mxGeometry x="170" y="140" width="240" height="60" as="geometry" />
        </mxCell>
        <mxCell id="zU2PSvf3BjOLI_M1upsQ-10" value="" style="edgeStyle=orthogonalEdgeStyle;rounded=0;orthogonalLoop=1;jettySize=auto;html=1;exitX=0.5;exitY=1;exitDx=0;exitDy=0;" edge="1" parent="1" source="zU2PSvf3BjOLI_M1upsQ-15" target="zU2PSvf3BjOLI_M1upsQ-9">
          <mxGeometry relative="1" as="geometry">
            <mxPoint x="280.0434782608695" y="350" as="sourcePoint" />
          </mxGeometry>
        </mxCell>
        <mxCell id="zU2PSvf3BjOLI_M1upsQ-12" value="" style="edgeStyle=orthogonalEdgeStyle;rounded=0;orthogonalLoop=1;jettySize=auto;html=1;" edge="1" parent="1" source="zU2PSvf3BjOLI_M1upsQ-9" target="zU2PSvf3BjOLI_M1upsQ-11">
          <mxGeometry relative="1" as="geometry" />
        </mxCell>
        <mxCell id="zU2PSvf3BjOLI_M1upsQ-9" value="INPUT&lt;br&gt;&amp;nbsp;nama_matakuliah, nilai_huruf, sks" style="shape=parallelogram;html=1;strokeWidth=2;perimeter=parallelogramPerimeter;whiteSpace=wrap;rounded=1;arcSize=12;size=0.23;" vertex="1" parent="1">
          <mxGeometry x="150" y="380" width="260" height="90" as="geometry" />
        </mxCell>
        <mxCell id="zU2PSvf3BjOLI_M1upsQ-14" value="" style="edgeStyle=orthogonalEdgeStyle;rounded=0;orthogonalLoop=1;jettySize=auto;html=1;" edge="1" parent="1" source="zU2PSvf3BjOLI_M1upsQ-11" target="zU2PSvf3BjOLI_M1upsQ-13">
          <mxGeometry relative="1" as="geometry" />
        </mxCell>
        <mxCell id="zU2PSvf3BjOLI_M1upsQ-11" value="nilai_huruf = &quot;A&quot;" style="strokeWidth=2;html=1;shape=mxgraph.flowchart.decision;whiteSpace=wrap;" vertex="1" parent="1">
          <mxGeometry x="220" y="500" width="120" height="80" as="geometry" />
        </mxCell>
        <mxCell id="zU2PSvf3BjOLI_M1upsQ-32" style="edgeStyle=orthogonalEdgeStyle;rounded=0;orthogonalLoop=1;jettySize=auto;html=1;exitX=1;exitY=0.5;exitDx=0;exitDy=0;" edge="1" parent="1" source="zU2PSvf3BjOLI_M1upsQ-13">
          <mxGeometry relative="1" as="geometry">
            <mxPoint x="280" y="990" as="targetPoint" />
            <Array as="points">
              <mxPoint x="480" y="540" />
              <mxPoint x="480" y="990" />
            </Array>
          </mxGeometry>
        </mxCell>
        <mxCell id="zU2PSvf3BjOLI_M1upsQ-13" value="bobot = 4" style="rounded=1;whiteSpace=wrap;html=1;absoluteArcSize=1;arcSize=14;strokeWidth=2;" vertex="1" parent="1">
          <mxGeometry x="370" y="520" width="90" height="40" as="geometry" />
        </mxCell>
        <mxCell id="zU2PSvf3BjOLI_M1upsQ-15" value="ulang = &quot;y&quot;" style="rounded=1;whiteSpace=wrap;html=1;absoluteArcSize=1;arcSize=14;strokeWidth=2;" vertex="1" parent="1">
          <mxGeometry x="230" y="230" width="100" height="50" as="geometry" />
        </mxCell>
        <mxCell id="zU2PSvf3BjOLI_M1upsQ-16" value="" style="edgeStyle=orthogonalEdgeStyle;rounded=0;orthogonalLoop=1;jettySize=auto;html=1;" edge="1" parent="1" target="zU2PSvf3BjOLI_M1upsQ-18">
          <mxGeometry relative="1" as="geometry">
            <mxPoint x="280" y="580" as="sourcePoint" />
          </mxGeometry>
        </mxCell>
        <mxCell id="zU2PSvf3BjOLI_M1upsQ-17" value="" style="edgeStyle=orthogonalEdgeStyle;rounded=0;orthogonalLoop=1;jettySize=auto;html=1;" edge="1" parent="1" source="zU2PSvf3BjOLI_M1upsQ-18" target="zU2PSvf3BjOLI_M1upsQ-19">
          <mxGeometry relative="1" as="geometry" />
        </mxCell>
        <mxCell id="zU2PSvf3BjOLI_M1upsQ-18" value="nilai_huruf = &quot;B&quot;" style="strokeWidth=2;html=1;shape=mxgraph.flowchart.decision;whiteSpace=wrap;" vertex="1" parent="1">
          <mxGeometry x="220" y="610" width="120" height="80" as="geometry" />
        </mxCell>
        <mxCell id="zU2PSvf3BjOLI_M1upsQ-35" style="edgeStyle=orthogonalEdgeStyle;rounded=0;orthogonalLoop=1;jettySize=auto;html=1;exitX=1;exitY=0.5;exitDx=0;exitDy=0;" edge="1" parent="1" source="zU2PSvf3BjOLI_M1upsQ-19">
          <mxGeometry relative="1" as="geometry">
            <mxPoint x="480" y="650.3913043478262" as="targetPoint" />
          </mxGeometry>
        </mxCell>
        <mxCell id="zU2PSvf3BjOLI_M1upsQ-19" value="bobot = 3" style="rounded=1;whiteSpace=wrap;html=1;absoluteArcSize=1;arcSize=14;strokeWidth=2;" vertex="1" parent="1">
          <mxGeometry x="370" y="630" width="90" height="40" as="geometry" />
        </mxCell>
        <mxCell id="zU2PSvf3BjOLI_M1upsQ-20" value="" style="edgeStyle=orthogonalEdgeStyle;rounded=0;orthogonalLoop=1;jettySize=auto;html=1;" edge="1" parent="1" target="zU2PSvf3BjOLI_M1upsQ-22">
          <mxGeometry relative="1" as="geometry">
            <mxPoint x="280" y="690" as="sourcePoint" />
          </mxGeometry>
        </mxCell>
        <mxCell id="zU2PSvf3BjOLI_M1upsQ-21" value="" style="edgeStyle=orthogonalEdgeStyle;rounded=0;orthogonalLoop=1;jettySize=auto;html=1;" edge="1" parent="1" source="zU2PSvf3BjOLI_M1upsQ-22" target="zU2PSvf3BjOLI_M1upsQ-23">
          <mxGeometry relative="1" as="geometry" />
        </mxCell>
        <mxCell id="zU2PSvf3BjOLI_M1upsQ-22" value="nilai_huruf = &quot;C&quot;" style="strokeWidth=2;html=1;shape=mxgraph.flowchart.decision;whiteSpace=wrap;" vertex="1" parent="1">
          <mxGeometry x="220" y="720" width="120" height="80" as="geometry" />
        </mxCell>
        <mxCell id="zU2PSvf3BjOLI_M1upsQ-34" style="edgeStyle=orthogonalEdgeStyle;rounded=0;orthogonalLoop=1;jettySize=auto;html=1;exitX=1;exitY=0.5;exitDx=0;exitDy=0;" edge="1" parent="1" source="zU2PSvf3BjOLI_M1upsQ-23">
          <mxGeometry relative="1" as="geometry">
            <mxPoint x="480" y="759.9565217391305" as="targetPoint" />
          </mxGeometry>
        </mxCell>
        <mxCell id="zU2PSvf3BjOLI_M1upsQ-23" value="bobot = 2" style="rounded=1;whiteSpace=wrap;html=1;absoluteArcSize=1;arcSize=14;strokeWidth=2;" vertex="1" parent="1">
          <mxGeometry x="370" y="740" width="90" height="40" as="geometry" />
        </mxCell>
        <mxCell id="zU2PSvf3BjOLI_M1upsQ-24" value="" style="edgeStyle=orthogonalEdgeStyle;rounded=0;orthogonalLoop=1;jettySize=auto;html=1;" edge="1" parent="1" target="zU2PSvf3BjOLI_M1upsQ-26">
          <mxGeometry relative="1" as="geometry">
            <mxPoint x="280" y="800" as="sourcePoint" />
          </mxGeometry>
        </mxCell>
        <mxCell id="zU2PSvf3BjOLI_M1upsQ-25" value="" style="edgeStyle=orthogonalEdgeStyle;rounded=0;orthogonalLoop=1;jettySize=auto;html=1;" edge="1" parent="1" source="zU2PSvf3BjOLI_M1upsQ-26" target="zU2PSvf3BjOLI_M1upsQ-27">
          <mxGeometry relative="1" as="geometry" />
        </mxCell>
        <mxCell id="zU2PSvf3BjOLI_M1upsQ-29" value="" style="edgeStyle=orthogonalEdgeStyle;rounded=0;orthogonalLoop=1;jettySize=auto;html=1;" edge="1" parent="1" source="zU2PSvf3BjOLI_M1upsQ-26" target="zU2PSvf3BjOLI_M1upsQ-28">
          <mxGeometry relative="1" as="geometry" />
        </mxCell>
        <mxCell id="zU2PSvf3BjOLI_M1upsQ-26" value="nilai_huruf = &quot;D&quot;" style="strokeWidth=2;html=1;shape=mxgraph.flowchart.decision;whiteSpace=wrap;" vertex="1" parent="1">
          <mxGeometry x="220" y="830" width="120" height="80" as="geometry" />
        </mxCell>
        <mxCell id="zU2PSvf3BjOLI_M1upsQ-33" style="edgeStyle=orthogonalEdgeStyle;rounded=0;orthogonalLoop=1;jettySize=auto;html=1;exitX=1;exitY=0.5;exitDx=0;exitDy=0;" edge="1" parent="1" source="zU2PSvf3BjOLI_M1upsQ-27">
          <mxGeometry relative="1" as="geometry">
            <mxPoint x="480" y="870.3913043478262" as="targetPoint" />
          </mxGeometry>
        </mxCell>
        <mxCell id="zU2PSvf3BjOLI_M1upsQ-27" value="bobot = 1" style="rounded=1;whiteSpace=wrap;html=1;absoluteArcSize=1;arcSize=14;strokeWidth=2;" vertex="1" parent="1">
          <mxGeometry x="370" y="850" width="90" height="40" as="geometry" />
        </mxCell>
        <mxCell id="zU2PSvf3BjOLI_M1upsQ-31" value="" style="edgeStyle=orthogonalEdgeStyle;rounded=0;orthogonalLoop=1;jettySize=auto;html=1;" edge="1" parent="1" source="zU2PSvf3BjOLI_M1upsQ-28" target="zU2PSvf3BjOLI_M1upsQ-30">
          <mxGeometry relative="1" as="geometry" />
        </mxCell>
        <mxCell id="zU2PSvf3BjOLI_M1upsQ-28" value="bobot = 0" style="rounded=1;whiteSpace=wrap;html=1;absoluteArcSize=1;arcSize=14;strokeWidth=2;" vertex="1" parent="1">
          <mxGeometry x="235" y="940" width="90" height="40" as="geometry" />
        </mxCell>
        <mxCell id="zU2PSvf3BjOLI_M1upsQ-38" value="" style="edgeStyle=orthogonalEdgeStyle;rounded=0;orthogonalLoop=1;jettySize=auto;html=1;" edge="1" parent="1" source="zU2PSvf3BjOLI_M1upsQ-30" target="zU2PSvf3BjOLI_M1upsQ-37">
          <mxGeometry relative="1" as="geometry" />
        </mxCell>
        <mxCell id="zU2PSvf3BjOLI_M1upsQ-30" value="jumlah_bobot = jumlah_bobot + (bobot * sks)&lt;div&gt;&lt;br&gt;&lt;/div&gt;&lt;div&gt;jumlah_sks = jumlah_sks + sks&lt;br&gt;&lt;/div&gt;" style="rounded=1;whiteSpace=wrap;html=1;absoluteArcSize=1;arcSize=14;strokeWidth=2;" vertex="1" parent="1">
          <mxGeometry x="150" y="1010" width="260" height="80" as="geometry" />
        </mxCell>
        <mxCell id="zU2PSvf3BjOLI_M1upsQ-39" style="edgeStyle=orthogonalEdgeStyle;rounded=0;orthogonalLoop=1;jettySize=auto;html=1;exitX=0;exitY=0.5;exitDx=0;exitDy=0;entryX=0;entryY=0.5;entryDx=0;entryDy=0;entryPerimeter=0;" edge="1" parent="1" source="zU2PSvf3BjOLI_M1upsQ-37" target="zU2PSvf3BjOLI_M1upsQ-40">
          <mxGeometry relative="1" as="geometry">
            <mxPoint x="80" y="533.9130434782609" as="targetPoint" />
            <Array as="points">
              <mxPoint x="30" y="1150" />
              <mxPoint x="30" y="325" />
            </Array>
          </mxGeometry>
        </mxCell>
        <mxCell id="zU2PSvf3BjOLI_M1upsQ-37" value="INPUT&amp;nbsp;&lt;div&gt;ulang&lt;/div&gt;" style="shape=parallelogram;html=1;strokeWidth=2;perimeter=parallelogramPerimeter;whiteSpace=wrap;rounded=1;arcSize=12;size=0.23;" vertex="1" parent="1">
          <mxGeometry x="230" y="1120" width="100" height="60" as="geometry" />
        </mxCell>
        <mxCell id="zU2PSvf3BjOLI_M1upsQ-43" style="edgeStyle=orthogonalEdgeStyle;rounded=0;orthogonalLoop=1;jettySize=auto;html=1;exitX=1;exitY=0.5;exitDx=0;exitDy=0;exitPerimeter=0;" edge="1" parent="1" source="zU2PSvf3BjOLI_M1upsQ-40" target="zU2PSvf3BjOLI_M1upsQ-42">
          <mxGeometry relative="1" as="geometry" />
        </mxCell>
        <mxCell id="zU2PSvf3BjOLI_M1upsQ-40" value="ulang = &quot;y&quot;" style="strokeWidth=2;html=1;shape=mxgraph.flowchart.decision;whiteSpace=wrap;" vertex="1" parent="1">
          <mxGeometry x="225" y="300" width="110" height="50" as="geometry" />
        </mxCell>
        <mxCell id="zU2PSvf3BjOLI_M1upsQ-41" value="True" style="text;html=1;align=center;verticalAlign=middle;resizable=0;points=[];autosize=1;strokeColor=none;fillColor=none;" vertex="1" parent="1">
          <mxGeometry x="275" y="348" width="50" height="30" as="geometry" />
        </mxCell>
        <mxCell id="zU2PSvf3BjOLI_M1upsQ-45" value="" style="edgeStyle=orthogonalEdgeStyle;rounded=0;orthogonalLoop=1;jettySize=auto;html=1;" edge="1" parent="1" source="zU2PSvf3BjOLI_M1upsQ-42" target="zU2PSvf3BjOLI_M1upsQ-44">
          <mxGeometry relative="1" as="geometry" />
        </mxCell>
        <mxCell id="zU2PSvf3BjOLI_M1upsQ-42" value="ipk = jumlah_bobot / jumlah_sks" style="rounded=1;whiteSpace=wrap;html=1;absoluteArcSize=1;arcSize=14;strokeWidth=2;" vertex="1" parent="1">
          <mxGeometry x="530" y="380" width="210" height="60" as="geometry" />
        </mxCell>
        <mxCell id="zU2PSvf3BjOLI_M1upsQ-47" value="" style="edgeStyle=orthogonalEdgeStyle;rounded=0;orthogonalLoop=1;jettySize=auto;html=1;" edge="1" parent="1" source="zU2PSvf3BjOLI_M1upsQ-44" target="zU2PSvf3BjOLI_M1upsQ-46">
          <mxGeometry relative="1" as="geometry" />
        </mxCell>
        <mxCell id="zU2PSvf3BjOLI_M1upsQ-44" value="PRINT&lt;br&gt;ipk" style="shape=parallelogram;html=1;strokeWidth=2;perimeter=parallelogramPerimeter;whiteSpace=wrap;rounded=1;arcSize=12;size=0.23;" vertex="1" parent="1">
          <mxGeometry x="585" y="470" width="100" height="60" as="geometry" />
        </mxCell>
        <mxCell id="zU2PSvf3BjOLI_M1upsQ-46" value="END" style="strokeWidth=2;html=1;shape=mxgraph.flowchart.terminator;whiteSpace=wrap;" vertex="1" parent="1">
          <mxGeometry x="585" y="560" width="100" height="60" as="geometry" />
        </mxCell>
      </root>
    </mxGraphModel>
  </diagram>
</mxfile>
